<?xml version="1.0" encoding="UTF-8"?>
<svg width="11px" height="11px" viewBox="0 0 11 11" version="1.1" xmlns="http://www.w3.org/2000/svg" xmlns:xlink="http://www.w3.org/1999/xlink">
    <path d="M10.7225502,0.000117135182 C10.6784895,0.00139255062 10.6324422,0.0106080523 10.5877672,0.0352848402 C7.10203418,2.06438702 3.61426219,4.09218002 0.127274368,6.11929406 C0.0291279675,6.17521227 -0.0216770741,6.2953389 0.00881640727,6.4006357 C0.0393491002,6.505945 0.147834268,6.58863443 0.262070456,6.58819679 L4.65702685,6.58819679 C4.78399371,7.98346376 4.9050527,9.37763038 5.02871272,10.7731599 C5.0386463,10.8812201 5.12970849,10.9756259 5.24110838,10.9958825 C5.35250827,11.0161391 5.47627285,10.9600458 5.52702561,10.8630267 C7.34274055,7.36712551 9.15375011,3.87201831 10.9676221,0.375239322 C11.0700164,0.185575043 10.9134972,-0.00540966504 10.7225502,0.000117135182 L10.7225502,0.000117135182 Z M7.52435518,3.59503809 L5.39224259,6.0841326 L5.13491055,6.0841326 L5.11449442,5.84576746 L7.52435518,3.59503809 Z" id="Shape" fill="#FFFFFF"></path>
</svg>
