<?xml version="1.0" standalone="no"?>
<!DOCTYPE svg PUBLIC "-//W3C//DTD SVG 20010904//EN"
 "http://www.w3.org/TR/2001/REC-SVG-20010904/DTD/svg10.dtd">
<svg version="1.0" xmlns="http://www.w3.org/2000/svg"
 width="700.000000pt" height="700.000000pt" viewBox="0 0 700.000000 700.000000"
 preserveAspectRatio="xMidYMid meet">
<metadata>
Created by potrace 1.14, written by Peter Selinger 2001-2017
</metadata>
<g transform="translate(0.000000,700.000000) scale(0.100000,-0.100000)"
fill="#000000" stroke="none">
<path d="M3420 5460 c-25 -5 -79 -11 -120 -15 -41 -3 -97 -8 -125 -10 -79 -7
-151 -32 -169 -59 -12 -19 -32 -28 -93 -41 -43 -8 -93 -21 -112 -27 -19 -6
-60 -12 -91 -14 -31 -2 -70 -6 -86 -9 -16 -3 -51 -8 -79 -12 -47 -5 -90 -20
-125 -42 -8 -6 -55 -24 -105 -42 -105 -37 -132 -55 -242 -166 -73 -74 -84 -90
-103 -150 -12 -38 -28 -111 -37 -163 -10 -62 -27 -118 -48 -160 -41 -82 -140
-486 -160 -650 -4 -30 -8 -57 -10 -60 -2 -3 -6 -34 -9 -70 -4 -36 -10 -92 -15
-125 -12 -87 -5 -337 13 -430 24 -123 24 -125 50 -210 61 -199 119 -334 233
-543 128 -234 226 -365 349 -463 67 -53 81 -58 86 -32 2 13 19 2 70 -43 108
-96 307 -207 493 -276 52 -19 285 -72 370 -83 28 -4 61 -9 75 -11 166 -24 299
-24 515 1 22 3 58 7 80 9 49 6 158 20 165 21 88 19 140 34 245 72 148 53 245
97 286 131 75 61 118 100 149 136 19 22 74 79 121 126 85 84 145 163 188 248
21 42 22 45 5 63 -31 34 -50 23 -122 -75 -83 -110 -139 -166 -287 -281 -200
-156 -290 -208 -417 -240 -35 -9 -99 -31 -143 -50 -99 -41 -144 -54 -220 -62
-81 -9 -276 -8 -410 1 -252 18 -304 25 -355 47 -25 11 -99 38 -165 60 -261 88
-398 172 -596 369 -198 197 -261 281 -354 470 -160 323 -257 804 -210 1030 7
33 11 102 9 154 -2 78 2 110 21 173 13 43 31 109 40 148 9 38 32 103 52 145
19 41 44 100 55 130 22 59 65 120 113 160 48 40 217 209 273 274 29 33 52 67
52 76 0 10 7 20 15 24 9 3 15 0 15 -9 0 -25 1 -30 12 -42 16 -20 66 -15 88 7
27 27 25 34 -11 68 l-31 29 37 7 c62 12 86 28 121 83 51 80 204 183 294 198
19 3 91 23 160 45 236 74 220 72 500 69 140 -1 299 -3 352 -3 130 -1 142 12
39 48 -58 20 -105 29 -177 32 -53 3 -111 7 -128 9 -64 10 -343 13 -386 5z"/>
<path d="M2151 5374 c-27 -34 -26 -47 3 -81 24 -27 25 -27 44 -9 29 26 43 71
29 89 -23 29 -53 30 -76 1z"/>
<path d="M1932 5310 c-101 -42 -93 -206 10 -203 50 1 77 19 95 61 17 40 11
113 -11 131 -19 16 -68 22 -94 11z"/>
<path d="M1640 5273 c-26 -10 -50 -45 -50 -74 0 -38 38 -63 79 -54 35 7 47 20
53 58 8 44 -40 85 -82 70z"/>
<path d="M4556 5234 c-3 -9 -6 -17 -6 -19 0 -2 28 -20 63 -41 156 -94 460
-357 581 -504 87 -105 164 -241 181 -318 5 -25 10 -30 20 -22 17 14 59 -116
88 -276 23 -123 25 -203 14 -509 -2 -60 -1 -121 3 -135 6 -22 9 -17 25 35 46
155 54 212 51 389 -2 109 -9 198 -19 246 -9 41 -18 88 -21 104 -18 104 -78
234 -172 372 -120 178 -238 310 -357 401 -34 26 -110 86 -168 133 -170 136
-267 186 -283 144z"/>
<path d="M1500 4933 c-73 -50 -104 -157 -64 -218 29 -45 92 -85 133 -85 50 0
134 58 174 121 22 33 9 81 -35 127 -66 68 -155 91 -208 55z"/>
<path d="M2184 4363 c-4 -16 -16 -45 -27 -67 -23 -43 -17 -62 23 -83 27 -13
54 -3 65 24 16 43 15 89 -5 121 -24 39 -47 41 -56 5z"/>
</g>
</svg>
