<?xml version="1.0" encoding="UTF-8"?>
<svg width="2229px" height="848px" viewBox="0 0 2229 848" version="1.1" xmlns="http://www.w3.org/2000/svg" xmlns:xlink="http://www.w3.org/1999/xlink">
    <title>Group</title>
    <g id="Page-1" stroke="none" stroke-width="1" fill="none" fill-rule="evenodd">
        <g id="noun-coffee-ring-1071954" fill="#000000" fill-rule="nonzero">
            <path d="M793.467255,673.393225 C780.493532,693.245642 766.690068,711.290254 747.556673,726.883425 C729.408644,741.654383 711.058683,756.234606 692.097614,769.853554 C671.165055,784.923913 648.440923,796.657547 622.514733,800.638669 C618.600449,801.241248 615.596452,803.123166 612.194968,804.708319 C592.442114,813.916041 572.043232,821.61308 550.06989,823.047013 C510.728157,825.682958 471.445638,823.376499 432.251178,819.128811 C415.532612,817.294334 398.243931,818.766673 383.188643,808.445361 C378.995602,805.548238 373.227951,804.918964 368.153852,803.405089 C331.794785,792.413119 297.088368,778.224245 266.102502,755.35654 C238.263277,734.815653 215.19829,709.851381 192.373951,684.089213 C164.173375,652.29495 146.674411,614.888057 131.610014,576.320035 C120.878035,548.892163 115.01291,519.63293 109.126529,490.633583 C103.409285,462.336385 100.627944,433.846172 103.489299,405.045919 C104.669535,393.012125 109.995366,380.304298 107.504472,369.241658 C101.158507,341.154952 116.976277,317.915656 120.789443,292.233277 C123.903136,271.320798 137.79876,253.923622 143.85443,233.530915 C146.125932,225.896188 150.490994,216.364749 157.178117,210.252864 C184.35613,185.61231 210.896465,160.360795 234.489055,132.112231 C238.05345,127.843714 236.810964,120.0488 244.310823,118.104213 C245.680845,124.468385 242.039321,132.853894 251.638282,134.03858 C258.29557,134.86976 265.293713,133.498336 268.264992,126.822483 C272.689343,116.901974 260.718066,115.919422 256.682016,109.196576 C270.46802,106.231214 285.20295,103.345945 290.306656,90.068345 C294.621311,78.8863999 303.20902,73.9440029 311.277931,67.841237 C326.025008,56.6592919 342.159795,47.5883521 360.85061,45.0943566 C372.054015,43.592336 381.783169,38.1691496 392.544754,35.3554637 C415.390349,29.311894 437.022836,19.6528668 461.718458,20.9469784 C491.289285,22.4904896 520.981574,21.0775826 550.560751,22.3806838 C566.36607,23.0307565 582.044613,26.7590062 598.401828,19.6349331 C585.107748,14.7638149 573.575634,8.56317364 560.340767,6.66950002 C548.618868,4.96564971 536.925816,6.39937797 525.132558,5.14673415 C498.07297,2.21989896 471.085501,-1.82893025 443.52488,0.907929658 C431.440871,2.11906008 419.748579,4.96564971 407.705563,6.20945588 C390.337172,8.04393319 372.476857,5.87997035 355.600389,12.5320612 C351.054424,14.324972 344.847914,14.3872839 343.427561,19.466159 C341.894475,24.8477788 337.701359,25.2574415 334.308757,26.6495804 C324.579603,30.6272069 313.818018,30.8171822 303.616679,33.0226432 C297.84007,34.2752642 293.136735,38.3033481 286.82979,37.9531097 C268.008402,37.0002697 249.919586,43.3436963 231.219661,44.2460029 C227.00582,44.46566 222.889605,46.3505491 220.256903,49.7285376 C217.715527,52.9967204 214.67008,53.7655124 210.886065,54.8994368 C198.333665,58.687088 185.31819,62.1333156 173.845289,68.3078923 C155.095261,78.3887406 143.554037,97.2966005 126.985781,110.295469 C125.885634,111.16814 125.173939,112.711727 124.563058,114.124687 C116.986449,131.590255 112.491195,149.91755 110.447587,168.82845 C109.596514,176.863644 108.445959,185.353259 104.291407,191.684756 C98.1056212,201.085493 94.1204337,211.424707 91.6175452,221.647657 C85.2804623,247.540528 79.1243587,273.543585 73.1370122,299.529924 C66.3789096,328.809674 63.6864636,358.490653 59.741966,388.050807 C51.2016277,451.781435 63.3152436,512.758181 86.3088709,571.863291 C98.9531264,604.280673 115.280735,634.872773 132.367485,665.308333 C152.297977,700.813193 175.362964,732.65761 208.942056,756.131716 C210.703491,757.3547 212.055749,760.340884 214.457672,759.037729 C217.461594,757.455615 214.066244,754.166611 215.587502,751.370327 C228.75101,757.482212 235.449672,770.038058 246.81022,777.052706 C284.251063,800.089868 322.05098,821.373179 366.010568,831.254933 C396.802853,838.168286 427.63765,843.11927 458.815578,846.696124 C482.271522,849.400308 505.695583,847.497592 529.160637,844.633145 C556.729608,841.246265 584.260622,840.533858 611.732423,833.489954 C636.389329,827.197061 659.534784,817.698449 682.937589,808.808366 C707.452535,799.529213 726.985238,781.591747 745.302555,762.792553 C752.149629,755.769395 755.945715,746.169716 764.153549,740.357992 C785.975822,724.865888 799.370868,702.650938 812.154046,679.984607 C813.165222,678.16206 814.475956,675.434091 813.82651,673.991495 C808.109266,661.915906 801.152648,661.65526 793.463307,673.400793 L793.467255,673.393225 Z" id="Path"></path>
            <path d="M872.779069,235.709649 C863.447507,216.156055 851.389521,198.506366 838.771352,181.188815 C824.949968,162.196893 810.386742,143.896608 793.116093,127.677317 C776.768187,112.292552 757.944685,100.22689 740.997073,85.6728508 C725.011728,71.9502973 708.241975,59.2347991 689.287738,49.6719541 C684.516457,47.2760745 678.9141,45.081986 675.986253,49.7224254 C672.767749,54.8527071 678.091308,58.7540013 682.411326,60.8585569 C699.843113,69.3375824 714.305248,82.0865224 729.509986,93.6414369 C757.012897,114.519023 783.143095,137.260992 805.556478,163.63976 C826.856337,188.744699 846.951461,214.954738 854.718769,249.661284 C856.170683,246.49343 856.89512,244.911023 857.955058,242.595252 C859.828515,246.754732 861.814845,250.281554 863.038126,254.052121 C876.470346,294.65203 882.853538,336.235433 879.766074,379.010582 C878.061811,402.503472 877.070129,425.984961 878.90505,450 C885.380593,437.761808 895.092577,399.54615 895.362407,386.61632 C895.884966,360.980112 897.298268,335.289941 892.915846,309.882506 C888.566108,284.539675 884.08898,259.31313 872.782718,235.700913 L872.779069,235.709649 Z" id="Path"></path>
            <path d="M72.7828008,151.651284 C73.0456498,150.558679 73.0247442,149.367297 72.9530581,148.226797 C71.722428,128.793934 45.416428,108.636142 26.2672603,112.473824 C10.2455173,115.676771 -1.96520265,135.229408 0.262991839,154.11819 C1.63401199,165.831243 20.7533583,181.846362 33.4175166,181.917629 C43.6118505,183.581978 70.8135632,159.562825 72.7817762,151.651438 L72.7828008,151.651284 Z" id="Path"></path>
            <path d="M95.0132642,58.4311857 C94.6447478,70.5726517 101.978855,78.4888082 114.039927,78.9805139 C126.714831,79.4845581 135.474596,70.1702777 135.972592,55.6634323 C136.440792,41.6788333 130.894897,33.5336214 120.533969,33.0289358 C107.128311,32.3429606 95.4501699,43.9419012 95.0124909,58.4311857 L95.0132642,58.4311857 Z" id="Path"></path>
            <path d="M37.0020268,58.7962521 C37.1528582,67.0876875 42.1627914,70.7576424 50.1212289,70.9960879 C61.4422947,71.14594 65.7865919,67.0088575 65.9970685,55.4617758 C66.153813,46.3474401 60.0052242,42.8361982 52.2774782,42.0426334 C45.1292998,41.2904393 36.8513619,50.6341942 37.0020268,58.7962521 L37.0020268,58.7962521 Z" id="Path"></path>
            <path d="M176.634085,238.587112 C174.595482,235.621986 174.033701,232.250922 169.536666,233.147095 C165.78558,233.907916 164.662094,237.035417 164.807063,240.120792 C165.042638,245.623935 162.004341,249.268833 158.996266,253.328213 C153.276085,260.993536 156.223775,266.788142 163.798315,271.146221 C171.892576,275.846496 175.543459,270.86054 178.898994,264.536429 C181.031228,260.527858 180.662737,256.374557 180.671861,251.846343 C181.864854,246.86038 179.642005,242.963128 176.633854,238.587343 L176.634085,238.587112 Z" id="Path"></path>
            <path d="M156.574254,21.7578709 C149.577169,32.1500951 158.368639,38.3095229 164.830929,45 C176.771063,32.0802788 179.256439,22.7271285 171.714935,17.762747 C165.653232,13.7734907 159.637073,17.1824922 156.574176,21.7577967 L156.574254,21.7578709 Z" id="Path"></path>
        </g>
        <g id="Morning-Creative" transform="translate(238.5368, 451.357)" fill="#071B1F" fill-rule="nonzero">
            <polygon id="Path" points="193.185 24.057 193.185 194.643 151.632 194.643 151.632 92.34 113.481 194.643 79.947 194.643 41.553 92.097 41.553 194.643 -5.68434189e-14 194.643 -5.68434189e-14 24.057 49.086 24.057 96.957 142.155 144.342 24.057"></polygon>
            <path d="M274.009959,196.587 C260.725959,196.587 248.778459,193.752 238.167459,188.082 C227.556459,182.412 219.213459,174.312 213.138459,163.782 C207.063459,153.252 204.025959,140.94 204.025959,126.846 C204.025959,112.914 207.103959,100.6425 213.259959,90.0315 C219.415959,79.4205 227.839959,71.28 238.531959,65.61 C249.223959,59.94 261.211959,57.105 274.495959,57.105 C287.779959,57.105 299.767959,59.94 310.459959,65.61 C321.151959,71.28 329.575959,79.4205 335.731959,90.0315 C341.887959,100.6425 344.965959,112.914 344.965959,126.846 C344.965959,140.778 341.847459,153.0495 335.610459,163.6605 C329.373459,174.2715 320.868459,182.412 310.095459,188.082 C299.322459,193.752 287.293959,196.587 274.009959,196.587 Z M274.009959,160.623 C281.947959,160.623 288.711459,157.707 294.300459,151.875 C299.889459,146.043 302.683959,137.7 302.683959,126.846 C302.683959,115.992 299.970459,107.649 294.543459,101.817 C289.116459,95.985 282.433959,93.069 274.495959,93.069 C266.395959,93.069 259.672959,95.9445 254.326959,101.6955 C248.980959,107.4465 246.307959,115.83 246.307959,126.846 C246.307959,137.7 248.940459,146.043 254.205459,151.875 C259.470459,157.707 266.071959,160.623 274.009959,160.623 Z" id="Shape"></path>
            <path d="M397.845918,81.648 C402.705918,74.196 408.780918,68.3235 416.070918,64.0305 C423.360918,59.7375 431.460918,57.591 440.370918,57.591 L440.370918,101.574 L428.949918,101.574 C418.581918,101.574 410.805918,103.8015 405.621918,108.2565 C400.437918,112.7115 397.845918,120.528 397.845918,131.706 L397.845918,194.643 L356.292918,194.643 L356.292918,59.049 L397.845918,59.049 L397.845918,81.648 Z" id="Path"></path>
            <path d="M532.130877,57.591 C548.006877,57.591 560.683377,62.7345 570.160377,73.0215 C579.637377,83.3085 584.375877,97.443 584.375877,115.425 L584.375877,194.643 L543.065877,194.643 L543.065877,121.014 C543.065877,111.942 540.716877,104.895 536.018877,99.873 C531.320877,94.851 525.002877,92.34 517.064877,92.34 C509.126877,92.34 502.808877,94.851 498.110877,99.873 C493.412877,104.895 491.063877,111.942 491.063877,121.014 L491.063877,194.643 L449.510877,194.643 L449.510877,59.049 L491.063877,59.049 L491.063877,77.031 C495.275877,71.037 500.945877,66.2985 508.073877,62.8155 C515.201877,59.3325 523.220877,57.591 532.130877,57.591 Z" id="Path"></path>
            <path d="M623.404836,44.955 C616.114836,44.955 610.161336,42.8085 605.544336,38.5155 C600.927336,34.2225 598.618836,28.917 598.618836,22.599 C598.618836,16.119 600.927336,10.7325 605.544336,6.4395 C610.161336,2.1465 616.114836,0 623.404836,0 C630.532836,0 636.405336,2.1465 641.022336,6.4395 C645.639336,10.7325 647.947836,16.119 647.947836,22.599 C647.947836,28.917 645.639336,34.2225 641.022336,38.5155 C636.405336,42.8085 630.532836,44.955 623.404836,44.955 Z M644.059836,59.049 L644.059836,194.643 L602.506836,194.643 L602.506836,59.049 L644.059836,59.049 Z" id="Shape"></path>
            <path d="M746.025795,57.591 C761.901795,57.591 774.578295,62.7345 784.055295,73.0215 C793.532295,83.3085 798.270795,97.443 798.270795,115.425 L798.270795,194.643 L756.960795,194.643 L756.960795,121.014 C756.960795,111.942 754.611795,104.895 749.913795,99.873 C745.215795,94.851 738.897795,92.34 730.959795,92.34 C723.021795,92.34 716.703795,94.851 712.005795,99.873 C707.307795,104.895 704.958795,111.942 704.958795,121.014 L704.958795,194.643 L663.405795,194.643 L663.405795,59.049 L704.958795,59.049 L704.958795,77.031 C709.170795,71.037 714.840795,66.2985 721.968795,62.8155 C729.096795,59.3325 737.115795,57.591 746.025795,57.591 Z" id="Path"></path>
            <path d="M867.917754,57.105 C877.475754,57.105 885.859254,59.049 893.068254,62.937 C900.277254,66.825 905.825754,71.928 909.713754,78.246 L909.713754,59.049 L951.266754,59.049 L951.266754,194.4 C951.266754,206.874 948.796254,218.1735 943.855254,228.2985 C938.914254,238.4235 931.381254,246.483 921.256254,252.477 C911.131254,258.471 898.535754,261.468 883.469754,261.468 C863.381754,261.468 847.100754,256.7295 834.626754,247.2525 C822.152754,237.7755 815.024754,224.937 813.242754,208.737 L854.309754,208.737 C855.605754,213.921 858.683754,218.0115 863.543754,221.0085 C868.403754,224.0055 874.397754,225.504 881.525754,225.504 C890.111754,225.504 896.956254,223.0335 902.059254,218.0925 C907.162254,213.1515 909.713754,205.254 909.713754,194.4 L909.713754,175.203 C905.663754,181.521 900.074754,186.6645 892.946754,190.6335 C885.818754,194.6025 877.475754,196.587 867.917754,196.587 C856.739754,196.587 846.614754,193.7115 837.542754,187.9605 C828.470754,182.2095 821.302254,174.0285 816.037254,163.4175 C810.772254,152.8065 808.139754,140.535 808.139754,126.603 C808.139754,112.671 810.772254,100.44 816.037254,89.91 C821.302254,79.38 828.470754,71.28 837.542754,65.61 C846.614754,59.94 856.739754,57.105 867.917754,57.105 Z M909.713754,126.846 C909.713754,116.478 906.838254,108.297 901.087254,102.303 C895.336254,96.309 888.329754,93.312 880.067754,93.312 C871.805754,93.312 864.799254,96.2685 859.048254,102.1815 C853.297254,108.0945 850.421754,116.235 850.421754,126.603 C850.421754,136.971 853.297254,145.1925 859.048254,151.2675 C864.799254,157.3425 871.805754,160.38 880.067754,160.38 C888.329754,160.38 895.336254,157.383 901.087254,151.389 C906.838254,145.395 909.713754,137.214 909.713754,126.846 Z" id="Shape"></path>
            <path d="M1004.29567,109.107 C1004.29567,92.259 1007.94067,77.2335 1015.23067,64.0305 C1022.52067,50.8275 1032.68617,40.5405 1045.72717,33.1695 C1058.76817,25.7985 1073.55067,22.113 1090.07467,22.113 C1110.32467,22.113 1127.65867,27.459 1142.07667,38.151 C1156.49467,48.843 1166.13367,63.423 1170.99367,81.891 L1125.30967,81.891 C1121.90767,74.763 1117.08817,69.336 1110.85117,65.61 C1104.61417,61.884 1097.52667,60.021 1089.58867,60.021 C1076.79067,60.021 1066.42267,64.476 1058.48467,73.386 C1050.54667,82.296 1046.57767,94.203 1046.57767,109.107 C1046.57767,124.011 1050.54667,135.918 1058.48467,144.828 C1066.42267,153.738 1076.79067,158.193 1089.58867,158.193 C1097.52667,158.193 1104.61417,156.33 1110.85117,152.604 C1117.08817,148.878 1121.90767,143.451 1125.30967,136.323 L1170.99367,136.323 C1166.13367,154.791 1156.49467,169.3305 1142.07667,179.9415 C1127.65867,190.5525 1110.32467,195.858 1090.07467,195.858 C1073.55067,195.858 1058.76817,192.1725 1045.72717,184.8015 C1032.68617,177.4305 1022.52067,167.184 1015.23067,154.062 C1007.94067,140.94 1004.29567,125.955 1004.29567,109.107 Z" id="Path"></path>
            <path d="M1227.27563,81.648 C1232.13563,74.196 1238.21063,68.3235 1245.50063,64.0305 C1252.79063,59.7375 1260.89063,57.591 1269.80063,57.591 L1269.80063,101.574 L1258.37963,101.574 C1248.01163,101.574 1240.23563,103.8015 1235.05163,108.2565 C1229.86763,112.7115 1227.27563,120.528 1227.27563,131.706 L1227.27563,194.643 L1185.72263,194.643 L1185.72263,59.049 L1227.27563,59.049 L1227.27563,81.648 Z" id="Path"></path>
            <path d="M1406.75859,124.659 C1406.75859,128.547 1406.51559,132.597 1406.02959,136.809 L1311.98859,136.809 C1312.63659,145.233 1315.35009,151.6725 1320.12909,156.1275 C1324.90809,160.5825 1330.78059,162.81 1337.74659,162.81 C1348.11459,162.81 1355.32359,158.436 1359.37359,149.688 L1403.59959,149.688 C1401.33159,158.598 1397.24109,166.617 1391.32809,173.745 C1385.41509,180.873 1378.00359,186.462 1369.09359,190.512 C1360.18359,194.562 1350.22059,196.587 1339.20459,196.587 C1325.92059,196.587 1314.09459,193.752 1303.72659,188.082 C1293.35859,182.412 1285.25859,174.312 1279.42659,163.782 C1273.59459,153.252 1270.67859,140.94 1270.67859,126.846 C1270.67859,112.752 1273.55409,100.44 1279.30509,89.91 C1285.05609,79.38 1293.11559,71.28 1303.48359,65.61 C1313.85159,59.94 1325.75859,57.105 1339.20459,57.105 C1352.32659,57.105 1363.99059,59.859 1374.19659,65.367 C1384.40259,70.875 1392.38109,78.732 1398.13209,88.938 C1403.88309,99.144 1406.75859,111.051 1406.75859,124.659 Z M1364.23359,113.724 C1364.23359,106.596 1361.80359,100.926 1356.94359,96.714 C1352.08359,92.502 1346.00859,90.396 1338.71859,90.396 C1331.75259,90.396 1325.88009,92.421 1321.10109,96.471 C1316.32209,100.521 1313.36559,106.272 1312.23159,113.724 L1364.23359,113.724 Z" id="Shape"></path>
            <path d="M1409.58055,126.603 C1409.58055,112.671 1412.21305,100.44 1417.47805,89.91 C1422.74305,79.38 1429.91155,71.28 1438.98355,65.61 C1448.05555,59.94 1458.18055,57.105 1469.35855,57.105 C1478.91655,57.105 1487.30005,59.049 1494.50905,62.937 C1501.71805,66.825 1507.26655,71.928 1511.15455,78.246 L1511.15455,59.049 L1552.70755,59.049 L1552.70755,194.643 L1511.15455,194.643 L1511.15455,175.446 C1507.10455,181.764 1501.47505,186.867 1494.26605,190.755 C1487.05705,194.643 1478.67355,196.587 1469.11555,196.587 C1458.09955,196.587 1448.05555,193.7115 1438.98355,187.9605 C1429.91155,182.2095 1422.74305,174.0285 1417.47805,163.4175 C1412.21305,152.8065 1409.58055,140.535 1409.58055,126.603 Z M1511.15455,126.846 C1511.15455,116.478 1508.27905,108.297 1502.52805,102.303 C1496.77705,96.309 1489.77055,93.312 1481.50855,93.312 C1473.24655,93.312 1466.24005,96.2685 1460.48905,102.1815 C1454.73805,108.0945 1451.86255,116.235 1451.86255,126.603 C1451.86255,136.971 1454.73805,145.1925 1460.48905,151.2675 C1466.24005,157.3425 1473.24655,160.38 1481.50855,160.38 C1489.77055,160.38 1496.77705,157.383 1502.52805,151.389 C1508.27905,145.395 1511.15455,137.214 1511.15455,126.846 Z" id="Shape"></path>
            <path d="M1647.62651,159.408 L1647.62651,194.643 L1626.48551,194.643 C1611.41951,194.643 1599.67451,190.9575 1591.25051,183.5865 C1582.82651,176.2155 1578.61451,164.187 1578.61451,147.501 L1578.61451,93.555 L1562.09051,93.555 L1562.09051,59.049 L1578.61451,59.049 L1578.61451,26.001 L1620.16751,26.001 L1620.16751,59.049 L1647.38351,59.049 L1647.38351,93.555 L1620.16751,93.555 L1620.16751,147.987 C1620.16751,152.037 1621.13951,154.953 1623.08351,156.735 C1625.02751,158.517 1628.26751,159.408 1632.80351,159.408 L1647.62651,159.408 Z" id="Path"></path>
            <path d="M1680.82347,44.955 C1673.53347,44.955 1667.57997,42.8085 1662.96297,38.5155 C1658.34597,34.2225 1656.03747,28.917 1656.03747,22.599 C1656.03747,16.119 1658.34597,10.7325 1662.96297,6.4395 C1667.57997,2.1465 1673.53347,0 1680.82347,0 C1687.95147,0 1693.82397,2.1465 1698.44097,6.4395 C1703.05797,10.7325 1705.36647,16.119 1705.36647,22.599 C1705.36647,28.917 1703.05797,34.2225 1698.44097,38.5155 C1693.82397,42.8085 1687.95147,44.955 1680.82347,44.955 Z M1701.47847,59.049 L1701.47847,194.643 L1659.92547,194.643 L1659.92547,59.049 L1701.47847,59.049 Z" id="Shape"></path>
            <polygon id="Path" points="1781.81743 155.763 1811.22043 59.049 1855.44643 59.049 1807.33243 194.643 1756.05943 194.643 1707.94543 59.049 1752.41443 59.049"></polygon>
            <path d="M1989.97439,124.659 C1989.97439,128.547 1989.73139,132.597 1989.24539,136.809 L1895.20439,136.809 C1895.85239,145.233 1898.56589,151.6725 1903.34489,156.1275 C1908.12389,160.5825 1913.99639,162.81 1920.96239,162.81 C1931.33039,162.81 1938.53939,158.436 1942.58939,149.688 L1986.81538,149.688 C1984.54739,158.598 1980.45689,166.617 1974.54389,173.745 C1968.63089,180.873 1961.21939,186.462 1952.30939,190.512 C1943.39939,194.562 1933.43639,196.587 1922.42039,196.587 C1909.13639,196.587 1897.31038,193.752 1886.94239,188.082 C1876.57439,182.412 1868.47439,174.312 1862.64239,163.782 C1856.81039,153.252 1853.89439,140.94 1853.89439,126.846 C1853.89439,112.752 1856.76989,100.44 1862.52088,89.91 C1868.27189,79.38 1876.33139,71.28 1886.69938,65.61 C1897.06739,59.94 1908.97439,57.105 1922.42039,57.105 C1935.54239,57.105 1947.20639,59.859 1957.41239,65.367 C1967.61839,70.875 1975.59689,78.732 1981.34789,88.938 C1987.09889,99.144 1989.97439,111.051 1989.97439,124.659 Z M1947.44938,113.724 C1947.44938,106.596 1945.01938,100.926 1940.15938,96.714 C1935.29939,92.502 1929.22439,90.396 1921.93439,90.396 C1914.96839,90.396 1909.09588,92.421 1904.31689,96.471 C1899.53789,100.521 1896.58139,106.272 1895.44739,113.724 L1947.44938,113.724 Z" id="Shape"></path>
        </g>
    </g>
</svg>